# xmcd CD database file
#
# Track frame offsets:
#	150
#	14175
#	29525
#	42334
#	56614
#	69701
#	81537
#	94730
#	110555
#	125612
#	139034
#	153770
#
# Disc length: 2259 seconds
#
# Revision: 0
# Processed by: cddbd v1.5.2PL0 Copyright (c) Steve Scherf et al.
# Submitted via: CDex 1.51
#
DISCID=ac08d10c
DTITLE=Dennis Gruenling - BadAss Harmonica - Jam Tracks - Complete Set #1 Key of E
DYEAR=1900
DGENRE=Blues
TTITLE0=12 Bar Blues Shuffle
TTITLE1=12 Bar Slow Blues
TTITLE2=12 Bar Boogie
TTITLE3=12 Bar Box Shuffle
TTITLE4=12 Bar Swing Blues
TTITLE5=12 Bar Rhumba Blues
TTITLE6=I Chord Diddley Beat
TTITLE7=I Chord Hooker Beat
TTITLE8=I Chord Shuffle
TTITLE9=Minor I Chord Midtempo
TTITLE10=Minor 12 Bar Midtempo
TTITLE11=Minor 12 Bar Slow Blues
EXTD=
EXTT0=
EXTT1=
EXTT2=
EXTT3=
EXTT4=
EXTT5=
EXTT6=
EXTT7=
EXTT8=
EXTT9=
EXTT10=
EXTT11=
PLAYORDER=
